<svg width="56" height="56" viewBox="0 0 56 56" fill="none" xmlns="http://www.w3.org/2000/svg">
<g clip-path="url(#clip0_32_143)">
<path d="M42 32.5C42 22.2826 33.7173 14 23.5 14C13.2827 14 5 22.2826 5 32.5C5 42.7174 13.2827 51 23.5 51C33.7173 51 42 42.7174 42 32.5V32.5Z" fill="#89C8FD"/>
<path d="M23.7549 14C22.8185 14 21.8982 14.0716 21 14.2097C29.769 15.5564 36.4897 23.2322 36.4897 32.5C36.4897 41.7678 29.769 49.4436 21 50.7903C21.8982 50.9284 22.8185 51 23.7549 51C33.8315 51 42 42.7174 42 32.5C42 22.2826 33.8315 14 23.7549 14V14Z" fill="#60B6FF"/>
<path d="M20.9212 21.0602C18.0808 22.8184 15.9501 25.6311 17.548 28.7961C19.1459 31.9606 22.6966 30.73 25.9811 30.2905C29.2656 29.8511 26.7801 39.8726 28.7329 42.334C30.6857 44.7953 36.1892 39.8726 35.6568 36.7077C34.8681 32.022 34.5917 30.3782 40.9829 27.0379L41 27.0316C38.8458 19.8266 32.3247 14.4805 24.4728 14L24.4719 14.0275C24.4719 14.0275 23.7617 19.302 20.9212 21.0602Z" fill="#BAEB6C"/>
<path d="M35 18C35.0013 18.0009 35.0026 18.0021 35.0038 18.003C35.0026 18.0021 35.0013 18.0013 35 18Z" fill="#BAEB6C"/>
<path d="M37.1392 20.1348C37.1392 20.1352 37.1396 20.1356 37.14 20.1356C37.1396 20.1352 37.1396 20.1352 37.1392 20.1348Z" fill="#BAEB6C"/>
<path d="M11.1689 40.5392C10.3188 39.2518 12.673 36.2237 13.2035 33.9336C13.7345 31.6435 10.5495 31.8195 9.57636 31.0267C8.60325 30.234 7.276 26.799 6.30289 26.0063L6.1474 25.8845C5.40582 27.8696 5 30.0176 5 32.2598C5 38.3076 7.94753 43.6691 12.4901 47.0001L12.4957 46.6167C12.4957 46.6167 13.2035 43.622 11.1689 40.5392V40.5392Z" fill="#BAEB6C"/>
<path d="M35.6748 36.7516C35.671 36.7287 35.6671 36.7063 35.6633 36.6833C35.3117 38.0937 34.7957 39.4396 34.1365 40.6994C35.1818 39.4744 35.8803 37.9809 35.6748 36.7516Z" fill="#BAEB6C"/>
<path d="M25.0003 13.8247L24.9995 13.8525C24.9995 13.8525 24.9405 14.2968 24.7884 14.9706C31.2338 17.4102 35.9528 23.3771 36.6022 30.524C37.4144 29.4132 38.8999 28.3357 41.4574 26.9826L41.4745 26.9762C39.3271 19.7049 32.827 14.3096 25.0003 13.8247Z" fill="#96D629"/>
<path d="M23.8241 55.9999C22.5223 55.9999 21.2111 55.8931 19.9007 55.6765C13.6369 54.6421 8.15062 51.2306 4.45281 46.0703C0.754994 40.91 -0.711742 34.6184 0.323048 28.355C0.397816 27.9012 0.827626 27.5945 1.28008 27.6692C1.73381 27.744 2.041 28.1725 1.96581 28.6263C1.00408 34.4509 2.36785 40.3016 5.80675 45.1005C9.24566 49.8993 14.347 53.0716 20.1725 54.0337C32.1982 56.0204 43.5954 47.8528 45.5817 35.8288C46.5434 30.0041 45.1796 24.1534 41.7407 19.3546C38.3022 14.5558 33.2005 11.3835 27.3754 10.4213C26.9217 10.3465 26.6145 9.91802 26.6893 9.46428C26.7645 9.01055 27.1938 8.70379 27.6463 8.77855C33.9106 9.81292 39.3968 13.2245 43.0942 18.3848C46.792 23.545 48.2588 29.8367 47.2244 36.1001C46.1901 42.3635 42.7781 47.8494 37.6174 51.5467C33.5359 54.4708 28.7473 55.9999 23.8241 55.9999Z" fill="#09A66D"/>
<path d="M18.7693 20.1126C9.88092 18.6044 4.36688 7.41313 4.36688 7.41313C4.36688 7.41313 13.2643 -1.33303 22.1527 0.174724C31.0411 1.68248 36.5552 12.8738 36.5552 12.8738C36.5552 12.8738 27.6578 21.6203 18.7693 20.1126Z" fill="#49CB5C"/>
<path d="M22.1527 0.174722C20.4553 -0.113242 18.7582 -0.0265113 17.1223 0.301187C25.6395 2.21354 30.8933 12.8738 30.8933 12.8738C30.8933 12.8738 25.0691 18.5984 18.1375 19.9861C18.3464 20.0331 18.5566 20.0763 18.7693 20.1126C27.6578 21.6203 36.5552 12.8738 36.5552 12.8738C36.5552 12.8738 31.0411 1.68247 22.1527 0.174722Z" fill="#07B128"/>
<path d="M36.0527 11.9445L27.3604 10.4781L19.241 0.0234375C18.5933 0.0614624 17.9516 0.144348 17.3184 0.263123L24.9337 10.0684L18.3793 8.96271L12.7866 1.72687C12.262 1.96356 11.7518 2.21478 11.2601 2.4754L15.9585 8.55426L5.12054 6.72565C4.63391 7.15076 4.36688 7.41309 4.36688 7.41309C4.36688 7.41309 4.54547 7.77496 4.88812 8.37524L15.6671 10.1936L9.68909 14.816C10.074 15.2125 10.4778 15.6042 10.8999 15.9845L17.9016 10.5709L24.8405 11.7415L15.4035 19.0427C15.9893 19.3162 16.5947 19.5529 17.2189 19.7434L27.075 12.1188L35.7729 13.5859C36.277 13.1463 36.5552 12.8737 36.5552 12.8737C36.5552 12.8737 36.383 12.5251 36.0527 11.9445Z" fill="#09A66D"/>
<path d="M42.6006 9.24951C44.9851 3.6073 53.2467 1.70776 53.2467 1.70776C53.2467 1.70776 57.6427 8.95599 55.2582 14.5982C52.8742 20.2404 44.6121 22.14 44.6121 22.14C44.6121 22.14 40.2161 14.8917 42.6006 9.24951Z" fill="#49CB5C"/>
<path d="M53.2468 1.70776C53.2468 1.70776 51.3682 2.14014 49.144 3.20398C50.2852 5.62134 52.0941 10.5274 50.3736 14.5982C49.1265 17.5496 46.2708 19.4769 43.8307 20.6437C44.2712 21.5768 44.6126 22.14 44.6126 22.14C44.6126 22.14 52.8743 20.2404 55.2587 14.5982C57.6428 8.95599 53.2468 1.70776 53.2468 1.70776Z" fill="#07B128"/>
<path d="M55.9338 9.94464L49.5806 12.6098L53.7518 2.63745C53.4532 2.04785 53.2468 1.70776 53.2468 1.70776C53.2468 1.70776 52.8538 1.79834 52.2142 1.99829L47.9033 12.3043L45.23 5.72687C44.7771 6.12634 44.3499 6.56042 43.9623 7.03082L46.9915 14.4841L44.1461 21.2867C44.4238 21.8289 44.6122 22.14 44.6122 22.14C44.6122 22.14 45.0394 22.0417 45.7264 21.8238L48.6646 14.7999L55.9312 11.7519C55.9795 11.1482 55.9769 10.5428 55.9338 9.94464Z" fill="#09A66D"/>
</g>
<defs>
<clipPath id="clip0_32_143">
<rect width="56" height="56" fill="white"/>
</clipPath>
</defs>
</svg>
